M48
METRIC,LZ,000.000
;FILE_FORMAT=3:3
;TYPE=PLATED
;Layer: PTH_Through
;EasyEDA v6.5.51, 2026-10-02 11:28:29
;10
;Gerber Generator version 0.2
;Holesize 1 = 0.306 mm
T01C0.306
;Holesize 2 = 0.889 mm
T02C0.889
;Holesize 3 = 0.915 mm
T03C0.915
;Holesize 4 = 1.000 mm
T04C1.000
;Holesize 5 = 1.270 mm
T05C1.270
;Holesize 6 = 1.301 mm
T06C1.301
%
G05
G90
T01
X052931Y017649
X058333Y020945
X046099Y001251
X051217Y022018
X029773Y007667
X059811Y020704
X043247Y019781
T02
X050375Y055967
X050375Y058507
T03
X010624Y019264
X010624Y016724
X010624Y014184
X010624Y011644
X010624Y009104
X010624Y006564
X010624Y004024
X010624Y001484
X028404Y001484
X028404Y004024
X028404Y006564
X028404Y009104
X028404Y011644
X028404Y014184
X028404Y016724
X028404Y019264
T04
X053848Y049276G85X053848Y049276
X053848Y064516G85X053848Y064516
X071628Y049276G85X071628Y049276
X071628Y064516G85X071628Y064516
T05
X028528Y046690G85X028533Y046690
X028528Y049230G85X028533Y049230
X028528Y051770G85X028533Y051770
X028528Y054310G85X028533Y054310
X028528Y059390G85X028533Y059390
X028528Y056850G85X028533Y056850
X013288Y064470G85X013293Y064470
X028528Y064470G85X028533Y064470
X013288Y061930G85X013293Y061930
X013288Y059390G85X013293Y059390
X013288Y056850G85X013293Y056850
X013288Y054310G85X013293Y054310
X013288Y051770G85X013293Y051770
X013288Y049230G85X013293Y049230
X013288Y046690G85X013293Y046690
X028528Y061930G85X028533Y061930
T06
X065869Y001992
X068409Y001992
X070949Y001992
X073489Y001992
M30
