G04 Layer: BottomSolderMaskLayer*
G04 EasyEDA v6.5.51, 2026-10-02 11:28:29*
G04 Gerber Generator version 0.2*
G04 Scale: 100 percent, Rotated: No, Reflected: No *
G04 Dimensions in millimeters *
G04 leading zeros omitted , absolute positions ,4 integer and 5 decimal *
%FSLAX45Y45*%
%MOMM*%

%AMMACRO1*4,1,8,-0.7751,-0.8048,-0.8048,-0.775,-0.8048,0.7751,-0.7751,0.8048,0.775,0.8048,0.8048,0.7751,0.8048,-0.775,0.775,-0.8048,-0.7751,-0.8048,0*%
%AMMACRO2*4,1,8,-0.8085,-0.8382,-0.8382,-0.8084,-0.8382,0.8085,-0.8085,0.8382,0.8084,0.8382,0.8382,0.8085,0.8382,-0.8084,0.8084,-0.8382,-0.8085,-0.8382,0*%
%ADD10MACRO1*%
%ADD11MACRO2*%
%ADD12C,1.6764*%
%ADD13C,1.6256*%
%ADD14C,2.0066*%
%ADD15C,2.1016*%
%ADD16C,0.0167*%

%LPD*%
D10*
G01*
X5384800Y4927600D03*
G01*
X5384800Y6451600D03*
G01*
X7162800Y4927600D03*
G01*
X7162800Y6451600D03*
D11*
G01*
X5037475Y5596702D03*
D12*
G01*
X5037475Y5850702D03*
D13*
G01*
X1062375Y1926402D03*
G01*
X1062375Y1672402D03*
G01*
X1062375Y1418402D03*
G01*
X1062375Y1164402D03*
G01*
X1062375Y910402D03*
G01*
X1062375Y656402D03*
G01*
X1062375Y402402D03*
G01*
X1062375Y148402D03*
G01*
X2840375Y148402D03*
G01*
X2840375Y402402D03*
G01*
X2840375Y656402D03*
G01*
X2840375Y910402D03*
G01*
X2840375Y1164402D03*
G01*
X2840375Y1418402D03*
G01*
X2840375Y1672402D03*
G01*
X2840375Y1926402D03*
D14*
G01*
X2853075Y4668992D03*
G01*
X2853075Y4922992D03*
G01*
X2853075Y5176992D03*
G01*
X2853075Y5430992D03*
G01*
X2853075Y5938992D03*
G01*
X2853075Y5684992D03*
G01*
X1329075Y6446992D03*
G01*
X2853075Y6446992D03*
G01*
X1329075Y6192992D03*
G01*
X1329075Y5938992D03*
G01*
X1329075Y5684992D03*
G01*
X1329075Y5430992D03*
G01*
X1329075Y5176992D03*
G01*
X1329075Y4922992D03*
G01*
X1329075Y4668992D03*
G01*
X2853075Y6192992D03*
D15*
G01*
X6586875Y199202D03*
G01*
X6840875Y199202D03*
G01*
X7094875Y199202D03*
G01*
X7348875Y199202D03*
M02*
